<svg width="1177" height="1050" viewBox="0 0 1177 1050" fill="none" xmlns="http://www.w3.org/2000/svg">
	<path d="M255.475 354.928C257.276 420.429 85.1585 478.935 0 500V0C76.5301 0 252.099 0.397456 333.131 0.397456C434.421 0.397456 460.306 61.2083 399.532 126.789C338.758 192.369 255.475 122.814 210.458 191.176C165.44 259.539 253.224 273.052 255.475 354.928Z" fill="url(#paint0_linear)" />
	<path d="M192.789 797.291C194.148 750.654 64.2631 708.998 0 694V1050C57.7519 1050 190.241 1049.72 251.39 1049.72C327.827 1049.72 347.36 1006.42 301.499 959.727C255.637 913.033 192.789 962.556 158.818 913.882C124.846 865.208 191.091 855.587 192.789 797.291Z" fill="url(#paint1_linear)" />
	<line x1="867.229" y1="852.155" x2="1080.23" y2="763.155" stroke="#B46D91" stroke-width="4" />
	<line x1="861.025" y1="850.316" x2="837.025" y2="700.316" stroke="#B46D91" stroke-width="4" />
	<line x1="960.163" y1="638.184" x2="1127.16" y2="561.184" stroke="#B46D91" stroke-width="4" />
	<line x1="968.45" y1="638.623" x2="1082.45" y2="758.622" stroke="#B46D91" stroke-width="4" />
	<line x1="825.342" y1="685.111" x2="960.342" y2="638.111" stroke="#B46D91" stroke-width="4" />
	<line x1="1112.98" y1="563.301" x2="1082.98" y2="760.301" stroke="#B46D91" stroke-width="4" />
	<line x1="826.522" y1="689.069" x2="1081.52" y2="758.069" stroke="#B46D91" stroke-width="4" />
	<ellipse cx="1081" cy="765.5" rx="96" ry="78.5" fill="url(#paint2_radial)" />
	<ellipse cx="1111" cy="563" rx="33" ry="22" fill="url(#paint3_radial)" />
	<ellipse cx="829" cy="686.5" rx="34" ry="25.5" fill="url(#paint4_radial)" />
	<ellipse cx="967" cy="632.5" rx="29" ry="23.5" fill="url(#paint5_radial)" />
	<ellipse cx="862.5" cy="844" rx="50.5" ry="28" fill="url(#paint6_radial)" />
	<g filter="url(#filter0_f)">
		<path d="M967.814 350.486C938.143 350.723 910.832 380.237 900.885 394.964C852.574 426.146 877.912 365.77 842.972 342.784C808.032 319.797 805.016 276.732 919.396 262.179C1033.78 247.625 1001.79 193.794 1028.97 157.796C1056.16 121.798 1103.55 200.338 1081.88 222.518C1060.21 244.698 1101.38 267.819 1053.06 290.378C1004.74 312.937 1004.9 350.189 967.814 350.486Z" fill="url(#paint7_angular)" />
	</g>
	<defs>
		<filter id="filter0_f" x="781.894" y="126.283" width="362.212" height="299.435" filterUnits="userSpaceOnUse" color-interpolation-filters="sRGB">
			<feFlood flood-opacity="0" result="BackgroundImageFix" />
			<feBlend mode="normal" in="SourceGraphic" in2="BackgroundImageFix" result="shape" />
			<feGaussianBlur stdDeviation="6.5" result="effect1_foregroundBlur" />
		</filter>
		<linearGradient id="paint0_linear" x1="216" y1="0" x2="216" y2="500" gradientUnits="userSpaceOnUse">
			<stop stop-color="#583D72" />
			<stop offset="0.770833" stop-color="#80507A" />
			<stop offset="1" stop-color="#9F5F80" />
		</linearGradient>
		<linearGradient id="paint1_linear" x1="163" y1="1050" x2="163" y2="694" gradientUnits="userSpaceOnUse">
			<stop stop-color="#583D72" />
			<stop offset="0.770833" stop-color="#80507A" />
			<stop offset="1" stop-color="#9F5F80" />
		</linearGradient>
		<radialGradient id="paint2_radial" cx="0" cy="0" r="1" gradientUnits="userSpaceOnUse" gradientTransform="translate(1081 765.5) rotate(128.526) scale(100.342 122.711)">
			<stop offset="0.197917" stop-color="#583D72" />
			<stop offset="0.9999" stop-color="#9F5F80" />
			<stop offset="1" stop-color="#583D72" stop-opacity="0" />
		</radialGradient>
		<radialGradient id="paint3_radial" cx="0" cy="0" r="1" gradientUnits="userSpaceOnUse" gradientTransform="translate(1111 563) rotate(90) scale(22 33)">
			<stop offset="0.890625" stop-color="#583D72" />
			<stop offset="0.9999" stop-color="#9F5F80" />
			<stop offset="1" stop-color="#583D72" stop-opacity="0" />
		</radialGradient>
		<radialGradient id="paint4_radial" cx="0" cy="0" r="1" gradientUnits="userSpaceOnUse" gradientTransform="translate(829 686.5) rotate(90) scale(25.5 34)">
			<stop offset="0.890625" stop-color="#583D72" />
			<stop offset="0.9999" stop-color="#9F5F80" />
			<stop offset="1" stop-color="#583D72" stop-opacity="0" />
		</radialGradient>
		<radialGradient id="paint5_radial" cx="0" cy="0" r="1" gradientUnits="userSpaceOnUse" gradientTransform="translate(967 632.5) rotate(90) scale(23.5 29)">
			<stop offset="0.890625" stop-color="#583D72" />
			<stop offset="0.9999" stop-color="#9F5F80" />
			<stop offset="1" stop-color="#583D72" stop-opacity="0" />
		</radialGradient>
		<radialGradient id="paint6_radial" cx="0" cy="0" r="1" gradientUnits="userSpaceOnUse" gradientTransform="translate(862.5 844) rotate(90) scale(28 50.5)">
			<stop offset="0.890625" stop-color="#583D72" />
			<stop offset="0.9999" stop-color="#9F5F80" />
			<stop offset="1" stop-color="#583D72" stop-opacity="0" />
		</radialGradient>
		<radialGradient id="paint7_angular" cx="0" cy="0" r="1" gradientUnits="userSpaceOnUse" gradientTransform="translate(963 276) rotate(-56.5393) scale(156.85 101.464)">
			<stop offset="0.661458" stop-color="#80507A" />
			<stop offset="1" stop-color="#B46D91" />
		</radialGradient>
	</defs>
</svg>
