<svg width="1440" height="957" viewBox="0 0 1440 957" fill="none" xmlns="http://www.w3.org/2000/svg">
	<g filter="url(#filter0_d)">
		<path fill-rule="evenodd" clip-rule="evenodd" d="M0 929.271L30 918.45C60 908.351 120 887.431 180 861.46C240 835.49 300 804.47 360 783.55C420 762.629 480 752.53 540 778.5C600 804.47 660 866.51 720 882.381C780 898.251 840 866.51 900 846.311C960 825.391 1020 814.57 1080 835.49C1140 856.41 1200 908.351 1260 929.271C1320 950.192 1380 939.371 1410 934.321L1440 929.271V6.10352e-05H1410C1380 6.10352e-05 1320 6.10352e-05 1260 6.10352e-05C1200 6.10352e-05 1140 6.10352e-05 1080 6.10352e-05C1020 6.10352e-05 960 6.10352e-05 900 6.10352e-05C840 6.10352e-05 780 6.10352e-05 720 6.10352e-05C660 6.10352e-05 600 6.10352e-05 540 6.10352e-05C480 6.10352e-05 420 6.10352e-05 360 6.10352e-05C300 6.10352e-05 240 6.10352e-05 180 6.10352e-05C120 6.10352e-05 60 6.10352e-05 30 6.10352e-05H0V929.271Z" fill="#583D72" />
	</g>
	<ellipse cx="711" cy="283" rx="522" ry="389" fill="url(#paint0_linear)" />
	<ellipse cx="947.882" cy="337.847" rx="506.325" ry="437.518" transform="rotate(26.8625 947.882 337.847)" fill="url(#paint1_linear)" />
	<ellipse cx="468.759" cy="302.015" rx="506.325" ry="437.518" transform="rotate(-25.9606 468.759 302.015)" fill="url(#paint2_linear)" />
	<defs>
		<filter id="filter0_d" x="-4" y="6.10352e-05" width="1448" height="949.649" filterUnits="userSpaceOnUse" color-interpolation-filters="sRGB">
			<feFlood flood-opacity="0" result="BackgroundImageFix" />
			<feColorMatrix in="SourceAlpha" type="matrix" values="0 0 0 0 0 0 0 0 0 0 0 0 0 0 0 0 0 0 127 0" />
			<feOffset dy="4" />
			<feGaussianBlur stdDeviation="2" />
			<feColorMatrix type="matrix" values="0 0 0 0 0 0 0 0 0 0 0 0 0 0 0 0 0 0 0.25 0" />
			<feBlend mode="normal" in2="BackgroundImageFix" result="effect1_dropShadow" />
			<feBlend mode="normal" in="SourceGraphic" in2="effect1_dropShadow" result="shape" />
		</filter>
		<linearGradient id="paint0_linear" x1="694.657" y1="1094.67" x2="704.268" y2="263.568" gradientUnits="userSpaceOnUse">
			<stop stop-color="#4F4F4F" />
			<stop offset="1" stop-color="#C4C4C4" stop-opacity="0" />
		</linearGradient>
		<linearGradient id="paint1_linear" x1="932.03" y1="1250.75" x2="944.563" y2="316.035" gradientUnits="userSpaceOnUse">
			<stop stop-color="#4F4F4F" />
			<stop offset="1" stop-color="#C4C4C4" stop-opacity="0" />
		</linearGradient>
		<linearGradient id="paint2_linear" x1="452.907" y1="1214.92" x2="465.44" y2="280.203" gradientUnits="userSpaceOnUse">
			<stop stop-color="#4F4F4F" />
			<stop offset="1" stop-color="#C4C4C4" stop-opacity="0" />
		</linearGradient>
	</defs>
</svg>
