<svg width="1387" height="952" viewBox="0 0 1387 952" fill="none" xmlns="http://www.w3.org/2000/svg">
	<path d="M100.625 389.622C-40.324 293.549 1.48082 50.7761 22.3834 -1H1387V951.681C1190.05 936.148 1002.65 920.019 978.89 819.683C950.195 698.525 1014.43 618.368 993.557 551.861C914.302 299.301 757.618 235.576 547.825 296.155C338.031 356.734 282.995 490.298 100.625 389.622Z" fill="url(#paint0_angular)"/>
	<path d="M1032.85 174.571C952.69 170.901 967.585 56.2715 985.053 0.27533H1387L1387 648.149C1298.89 634.58 1162.42 571.551 1155.51 496.788C1146.87 403.333 1206.18 396.453 1206.18 276.625C1206.18 156.797 1133.05 179.157 1032.85 174.571Z" fill="url(#paint1_linear)"/>
	<ellipse cx="272.459" cy="292.103" rx="10.9196" ry="12.0691" fill="#583D72"/>
	<ellipse cx="272.459" cy="292.103" rx="10.9196" ry="12.0691" fill="#583D72"/>
	<ellipse cx="272.459" cy="292.103" rx="10.9196" ry="12.0691" fill="#583D72"/>
	<ellipse cx="232.803" cy="348.426" rx="14.9427" ry="16.6668" fill="#583D72"/>
	<ellipse cx="232.803" cy="348.426" rx="14.9427" ry="16.6668" fill="#583D72"/>
	<ellipse cx="232.803" cy="348.426" rx="14.9427" ry="16.6668" fill="#583D72"/>
	<ellipse cx="181.078" cy="259.345" rx="29.8853" ry="33.3336" fill="#583D72"/>
	<ellipse cx="181.078" cy="259.345" rx="29.8853" ry="33.3336" fill="#583D72"/>
	<ellipse cx="181.078" cy="259.345" rx="29.8853" ry="33.3336" fill="#583D72"/>
	<ellipse cx="296.597" cy="238.08" rx="10.9196" ry="12.0691" fill="#583D72"/>
	<ellipse cx="296.597" cy="238.08" rx="10.9196" ry="12.0691" fill="#583D72"/>
	<ellipse cx="296.597" cy="238.08" rx="10.9196" ry="12.0691" fill="#583D72"/>
	<ellipse cx="312.114" cy="324.288" rx="14.9427" ry="20.1151" fill="#583D72"/>
	<ellipse cx="312.114" cy="324.288" rx="14.9427" ry="20.1151" fill="#583D72"/>
	<ellipse cx="312.114" cy="324.288" rx="14.9427" ry="20.1151" fill="#583D72"/>
	<path d="M100.625 389.753C-40.3241 293.647 1.48083 50.7935 22.3835 -1H1387V952C1190.05 936.462 1002.66 920.328 978.893 819.958C950.197 698.76 1014.43 618.576 993.559 552.046C914.304 299.402 757.62 235.655 547.826 296.254C338.032 356.853 282.995 490.463 100.625 389.753Z" fill="url(#paint2_linear)"/>
	<defs>
	<radialGradient id="paint0_angular" cx="0" cy="0" r="1" gradientUnits="userSpaceOnUse" gradientTransform="translate(816.284 244.503) rotate(90.9039) scale(708.416 865.391)">
	<stop offset="0.0384205" stop-color="#9F5F80"/>
	<stop offset="1" stop-color="#583D72"/>
	</radialGradient>
	<linearGradient id="paint1_linear" x1="1179.12" y1="0.27533" x2="1179.12" y2="580.495" gradientUnits="userSpaceOnUse">
	<stop stop-color="#B46D91"/>
	<stop offset="1" stop-color="#583D72"/>
	</linearGradient>
	<linearGradient id="paint2_linear" x1="961.676" y1="337.079" x2="1014" y2="922.654" gradientUnits="userSpaceOnUse">
	<stop offset="0.0384205" stop-color="white" stop-opacity="0"/>
	<stop offset="1" stop-color="white"/>
	</linearGradient>
	</defs>
	</svg>
	