<svg width="1175" height="535" viewBox="0 0 1175 535" fill="none" xmlns="http://www.w3.org/2000/svg">
    <path d="M873.498 78.0382C944.953 68.5504 1001.11 126.532 992.036 152.623C982.961 178.715 908.846 184.513 825.228 162.111C741.61 139.709 696 191.629 696 170.808C696 151.941 784.179 89.898 873.498 78.0382Z" fill="#9F5F80" fill-opacity="0.56"/>
    <path d="M475.818 170.297C489.3 141.004 489.846 79.9247 401.886 0H0V600.48C237.72 602.482 1165.47 651.935 1168.88 556.077C1172.42 456.593 1220.07 363.318 979.314 429.399C738.561 495.481 847.374 509.846 600.934 556.077C354.494 602.308 179.711 375.594 199.427 244.998C219.142 114.402 309.798 180.619 360.56 211.827C420.464 248.655 465.961 191.715 475.818 170.297Z" fill="url(#paint0_linear)"/>
    <ellipse cx="945.5" cy="477" rx="18.5" ry="12" fill="#B46D91"/>
    <ellipse cx="1035" cy="503" rx="33" ry="20" fill="#B46D91"/>
    <ellipse cx="1060" cy="447.5" rx="9" ry="6.5" fill="#B46D91"/>
    <path d="M85.276 411.872C65.2646 445.717 20.0873 423.885 1.13708 408.738V534.614C28.8044 534.614 69.282 535.032 140.232 534.614C228.919 534.092 222.476 540.621 183.817 504.059C163.018 484.388 93.6141 531.48 85.276 508.499C76.9379 485.517 194.05 493.874 208.831 457.051C223.613 420.229 110.29 369.565 85.276 411.872Z" fill="url(#paint1_linear)"/>
    <path d="M73.5268 113.112C25.3175 94.0997 5.30608 119.641 0.758033 134.787L0.379028 0.293259H401.744L439.645 39.9886C441.793 42.1649 444.572 46.8831 438.508 48.3456C430.928 50.1736 376.73 35.549 349.442 78.1171C322.154 120.685 289.18 41.2944 211.484 38.944C133.788 36.5937 133.788 136.877 73.5268 113.112Z" fill="url(#paint2_linear)"/>
    <defs>
    <linearGradient id="paint0_linear" x1="258.193" y1="105.783" x2="610.381" y2="601.245" gradientUnits="userSpaceOnUse">
    <stop stop-color="#583D72"/>
    <stop offset="1" stop-color="#9F5F80"/>
    </linearGradient>
    <linearGradient id="paint1_linear" x1="105.979" y1="395.833" x2="105.979" y2="534.8" gradientUnits="userSpaceOnUse">
    <stop stop-color="#583D72"/>
    <stop offset="1" stop-color="#583D72" stop-opacity="0"/>
    </linearGradient>
    <linearGradient id="paint2_linear" x1="221.282" y1="0.293259" x2="221.282" y2="134.787" gradientUnits="userSpaceOnUse">
    <stop stop-color="#583D72"/>
    <stop offset="1" stop-color="#9F5F80"/>
    </linearGradient>
    </defs>
    </svg>
    